<svg xmlns="http://www.w3.org/2000/svg" width="48.816" height="36"><g data-name="Group 1"><path data-name="Path 3" d="M8.88 25.92a10.193 10.193 0 01-4.488-.98 8.151 8.151 0 01-3.216-2.668A6.305 6.305 0 010 18.572a6.333 6.333 0 012.64-5.28 15.849 15.849 0 017.248-2.736l6.576-.956V8.592a4.3 4.3 0 00-1.056-3.168A4.674 4.674 0 0012 4.368a4.881 4.881 0 00-2.568.6 8.392 8.392 0 00-1.56 1.172q-.576.624-.768.816a.725.725 0 01-.72.576h-3.7a1.059 1.059 0 01-.744-.288 1 1 0 01-.312-.768 5.191 5.191 0 011.18-2.736 8.88 8.88 0 013.48-2.64 13.5 13.5 0 015.76-1.1q5.664 0 8.256 2.544a8.931 8.931 0 012.592 6.672v15.072a1.156 1.156 0 01-.312.816 1.091 1.091 0 01-.84.336h-3.888a1.111 1.111 0 01-.816-.336 1.111 1.111 0 01-.336-.816v-1.872a7.834 7.834 0 01-3 2.52 10.617 10.617 0 01-4.824.984zm1.632-4.56a5.761 5.761 0 004.32-1.728 6.947 6.947 0 001.68-5.04v-1.008l-4.8.768a10.456 10.456 0 00-4.2 1.388 2.794 2.794 0 00-1.416 2.356 2.731 2.731 0 001.3 2.4 5.5 5.5 0 003.116.864z"/><path data-name="Path 4" d="M36.912 36A14.608 14.608 0 0130 34.584a9.422 9.422 0 01-3.744-3.244 6.337 6.337 0 01-1.1-3.12 1.025 1.025 0 01.36-.768 1.137 1.137 0 01.788-.332h4.176a1.274 1.274 0 01.744.22 1.51 1.51 0 01.5.792 5.056 5.056 0 001.56 2.184 5.286 5.286 0 003.384.888 6 6 0 004.248-1.3q1.372-1.296 1.372-4.464v-3.264a9.155 9.155 0 01-7.392 3.12q-4.992 0-7.512-3.072a13.444 13.444 0 01-2.712-8.256l-.048-1.3.048-1.3a13.53 13.53 0 012.736-8.228q2.544-3.144 7.488-3.144a9.86 9.86 0 014.464.96 9.207 9.207 0 013.216 2.64v-1.92a1.17 1.17 0 01.336-.864 1.111 1.111 0 01.816-.336h3.888a1.075 1.075 0 01.816.36 1.192 1.192 0 01.336.84l.048 23.14q0 5.328-2.976 8.256T36.912 36zm-.24-15.792a4.916 4.916 0 004.1-1.728 7.3 7.3 0 001.512-4.224q.048-.384.048-1.584 0-1.152-.048-1.536a7.367 7.367 0 00-1.512-4.272 4.916 4.916 0 00-4.1-1.728q-5.184 0-5.472 6.384l-.048 1.152a10.663 10.663 0 001.224 5.468q1.224 2.068 4.296 2.068z"/></g></svg>